# xmcd
#
# Track frame offsets:
#	150
#	20688
#	36465
#	56162
#	76133
#	94483
#	111187
#	128088
#	143660
#	160398
#	177273
#	195780
#	208268
#	227055
#	247073
#
# Disc length: 3489 seconds
#
# Revision: 12
# Processed by: cddbd v1.5.2PL0 Copyright (c) Steve Scherf et al.
# Submitted via: EZCDAudioConverter 8.2.2.1
#
DISCID=d40d9f0f
DTITLE=ZEZÉ DI CAMARGO and LUCIANO - A FERRO E FOGO [CD 2-502857) COLUMBIA
DYEAR=2002
DGENRE=SERTANEJO
TTITLE0=PRECISO DE UM TEMPO (BY GILMAR SINISTRO)
TTITLE1=AONDE VOCÊ FOI PARAR? (BY GILMAR SINISTRO)
TTITLE2=BABY COME BACK (BY GILMAR SINISTRO)
TTITLE3=CHAMANDO SEU NOME (BY GILMAR SINISTRO)
TTITLE4=SOU ASSIM (BY GILMAR SINISTRO)
TTITLE5=BALANÇOU (BY GILMAR SINISTRO)
TTITLE6=EU ERA ASSIM (BY GILMAR SINISTRO)
TTITLE7=IMPREVISÍVEL (BY GILMAR SINISTRO)
TTITLE8=A FERRO E FOGO (BY GILMAR SINISTRO)
TTITLE9=RIO E NOVA YORK (BY GILMAR SINISTRO)
TTITLE10=UM DIA A MAIS (BY GILMAR SINISTRO)
TTITLE11=SÓ AMOR PRA ELA (BY GILMAR SINISTRO)
TTITLE12=CONFLITO (BY GILMAR SINISTRO)
TTITLE13=SUFOCADO (DROWNING) (BY GILMAR SINISTRO)
TTITLE14=CORAÇÃO DE VIDRO (BY GILMAR SINISTRO)
EXTD=
EXTT0=
EXTT1=
EXTT2=
EXTT3=
EXTT4=
EXTT5=
EXTT6=
EXTT7=
EXTT8=
EXTT9=
EXTT10=
EXTT11=
EXTT12=
EXTT13=
EXTT14=
PLAYORDER=
